<svg width="14" height="26" viewBox="0 0 14 26" fill="none" xmlns="http://www.w3.org/2000/svg">
<path d="M12.9087 23.3912C13.0215 23.5105 13.1096 23.6509 13.1681 23.8043C13.2267 23.9577 13.2544 24.1212 13.2498 24.2853C13.2451 24.4494 13.2082 24.611 13.1411 24.7609C13.074 24.9107 12.978 25.0459 12.8587 25.1587C12.7394 25.2715 12.599 25.3596 12.4456 25.4181C12.2921 25.4767 12.1287 25.5044 11.9646 25.4997C11.8005 25.4951 11.6389 25.4582 11.489 25.3911C11.3391 25.324 11.204 25.228 11.0912 25.1087L0.46619 13.8587C0.24677 13.6266 0.124512 13.3193 0.124512 12.9999C0.124512 12.6805 0.24677 12.3733 0.46619 12.1412L11.0912 0.889933C11.2032 0.767981 11.3384 0.669504 11.4888 0.600224C11.6392 0.530941 11.8019 0.492239 11.9673 0.486359C12.1328 0.480478 12.2979 0.507542 12.4528 0.565973C12.6077 0.624405 12.7495 0.713041 12.8699 0.826735C12.9903 0.940428 13.0869 1.07691 13.1542 1.22826C13.2214 1.3796 13.2578 1.5428 13.2614 1.70835C13.265 1.87391 13.2357 2.03854 13.1752 2.19267C13.1146 2.34679 13.024 2.48735 12.9087 2.60618L3.09369 12.9999L12.9087 23.3912Z" fill="#F5DEB3"/>
</svg>
