<svg width="9" height="15" viewBox="0 0 9 15" fill="none" xmlns="http://www.w3.org/2000/svg">
<path d="M7.49429 13.4138C7.55648 13.4797 7.60509 13.5571 7.63736 13.6417C7.66964 13.7263 7.68493 13.8164 7.68237 13.9069C7.67981 13.9974 7.65944 14.0865 7.62244 14.1692C7.58544 14.2518 7.53252 14.3264 7.46671 14.3885C7.4009 14.4507 7.32349 14.4994 7.23889 14.5316C7.15429 14.5639 7.06416 14.5792 6.97365 14.5766C6.88314 14.5741 6.79402 14.5537 6.71138 14.5167C6.62874 14.4797 6.5542 14.4268 6.49201 14.361L0.632757 8.15706C0.511756 8.02907 0.444336 7.85963 0.444336 7.6835C0.444336 7.50737 0.511756 7.33792 0.632757 7.20993L6.49201 1.00533C6.55379 0.938076 6.62831 0.883769 6.71126 0.845564C6.7942 0.807359 6.88391 0.786015 6.97517 0.782773C7.06644 0.779531 7.15743 0.794455 7.24288 0.826677C7.32833 0.8589 7.40652 0.907779 7.47291 0.970476C7.53931 1.03317 7.59259 1.10844 7.62965 1.1919C7.66671 1.27536 7.68682 1.36535 7.68881 1.45665C7.6908 1.54795 7.67463 1.63873 7.64123 1.72373C7.60784 1.80873 7.55789 1.88624 7.49429 1.95177L2.08172 7.6835L7.49429 13.4138Z" fill="white"/>
</svg>
