<svg width="26" height="14" viewBox="0 0 26 14" fill="none" xmlns="http://www.w3.org/2000/svg">
<path d="M23.3912 1.09131C23.5105 0.978538 23.6509 0.890375 23.8043 0.831856C23.9577 0.773336 24.1212 0.745605 24.2853 0.750249C24.4494 0.754891 24.611 0.791817 24.7609 0.858915C24.9107 0.926014 25.0459 1.02197 25.1587 1.14131C25.2715 1.26065 25.3596 1.40103 25.4181 1.55444C25.4767 1.70785 25.5044 1.87129 25.4997 2.03542C25.4951 2.19954 25.4582 2.36115 25.3911 2.51101C25.324 2.66086 25.228 2.79604 25.1087 2.90881L13.8587 13.5338C13.6266 13.7532 13.3193 13.8755 12.9999 13.8755C12.6805 13.8755 12.3733 13.7532 12.1412 13.5338L0.889933 2.90881C0.767981 2.79678 0.669504 2.66164 0.600224 2.51123C0.530941 2.36082 0.492239 2.19815 0.486359 2.03265C0.480478 1.86716 0.507542 1.70215 0.565973 1.5472C0.624405 1.39226 0.713041 1.25046 0.826735 1.13006C0.940428 1.00966 1.07691 0.913053 1.22826 0.845845C1.3796 0.778637 1.5428 0.742171 1.70835 0.738566C1.87391 0.734961 2.03854 0.764286 2.19267 0.824841C2.34679 0.885397 2.48735 0.975973 2.60618 1.09131L12.9999 10.9063L23.3912 1.09131Z" fill="white"/>
</svg>
