<svg width="251" height="251" viewBox="0 0 251 251" fill="none" xmlns="http://www.w3.org/2000/svg">
<g clip-path="url(#clip0_528_4052)">
<path d="M231 0H20C8.95431 0 0 8.95431 0 20V231C0 242.046 8.95431 251 20 251H231C242.046 251 251 242.046 251 231V20C251 8.95431 242.046 0 231 0Z" fill="white"/>
<path d="M83.6666 15.2119H76.0605V22.818H83.6666V15.2119Z" fill="black"/>
<path d="M91.2726 15.2119H83.6665V22.818H91.2726V15.2119Z" fill="black"/>
<path d="M98.8785 15.2119H91.2725V22.818H98.8785V15.2119Z" fill="black"/>
<path d="M106.484 15.2119H98.8784V22.818H106.484V15.2119Z" fill="black"/>
<path d="M136.909 15.2119H129.303V22.818H136.909V15.2119Z" fill="black"/>
<path d="M144.515 15.2119H136.909V22.818H144.515V15.2119Z" fill="black"/>
<path d="M152.121 15.2119H144.515V22.818H152.121V15.2119Z" fill="black"/>
<path d="M159.727 15.2119H152.121V22.818H159.727V15.2119Z" fill="black"/>
<path d="M83.6666 22.8179H76.0605V30.4239H83.6666V22.8179Z" fill="black"/>
<path d="M91.2726 22.8179H83.6665V30.4239H91.2726V22.8179Z" fill="black"/>
<path d="M106.484 22.8179H98.8784V30.4239H106.484V22.8179Z" fill="black"/>
<path d="M114.091 22.8179H106.485V30.4239H114.091V22.8179Z" fill="black"/>
<path d="M144.515 22.8179H136.909V30.4239H144.515V22.8179Z" fill="black"/>
<path d="M159.727 22.8179H152.121V30.4239H159.727V22.8179Z" fill="black"/>
<path d="M167.333 22.8179H159.727V30.4239H167.333V22.8179Z" fill="black"/>
<path d="M174.939 22.8179H167.333V30.4239H174.939V22.8179Z" fill="black"/>
<path d="M83.6666 30.4238H76.0605V38.0299H83.6666V30.4238Z" fill="black"/>
<path d="M91.2726 30.4238H83.6665V38.0299H91.2726V30.4238Z" fill="black"/>
<path d="M98.8785 30.4238H91.2725V38.0299H98.8785V30.4238Z" fill="black"/>
<path d="M106.484 30.4238H98.8784V38.0299H106.484V30.4238Z" fill="black"/>
<path d="M114.091 30.4238H106.485V38.0299H114.091V30.4238Z" fill="black"/>
<path d="M136.909 30.4238H129.303V38.0299H136.909V30.4238Z" fill="black"/>
<path d="M144.515 30.4238H136.909V38.0299H144.515V30.4238Z" fill="black"/>
<path d="M167.333 30.4238H159.727V38.0299H167.333V30.4238Z" fill="black"/>
<path d="M106.484 38.0303H98.8784V45.6363H106.484V38.0303Z" fill="black"/>
<path d="M144.515 38.0303H136.909V45.6363H144.515V38.0303Z" fill="black"/>
<path d="M167.333 38.0303H159.727V45.6363H167.333V38.0303Z" fill="black"/>
<path d="M83.6666 45.6362H76.0605V53.2423H83.6666V45.6362Z" fill="black"/>
<path d="M106.484 45.6362H98.8784V53.2423H106.484V45.6362Z" fill="black"/>
<path d="M129.303 45.6362H121.697V53.2423H129.303V45.6362Z" fill="black"/>
<path d="M136.909 45.6362H129.303V53.2423H136.909V45.6362Z" fill="black"/>
<path d="M144.515 45.6362H136.909V53.2423H144.515V45.6362Z" fill="black"/>
<path d="M152.121 45.6362H144.515V53.2423H152.121V45.6362Z" fill="black"/>
<path d="M106.484 53.2422H98.8784V60.8482H106.484V53.2422Z" fill="black"/>
<path d="M114.091 53.2422H106.485V60.8482H114.091V53.2422Z" fill="black"/>
<path d="M136.909 53.2422H129.303V60.8482H136.909V53.2422Z" fill="black"/>
<path d="M144.515 53.2422H136.909V60.8482H144.515V53.2422Z" fill="black"/>
<path d="M152.121 53.2422H144.515V60.8482H152.121V53.2422Z" fill="black"/>
<path d="M83.6666 60.8481H76.0605V68.4542H83.6666V60.8481Z" fill="black"/>
<path d="M98.8785 60.8481H91.2725V68.4542H98.8785V60.8481Z" fill="black"/>
<path d="M114.091 60.8481H106.485V68.4542H114.091V60.8481Z" fill="black"/>
<path d="M129.303 60.8481H121.697V68.4542H129.303V60.8481Z" fill="black"/>
<path d="M144.515 60.8481H136.909V68.4542H144.515V60.8481Z" fill="black"/>
<path d="M159.727 60.8481H152.121V68.4542H159.727V60.8481Z" fill="black"/>
<path d="M174.939 60.8481H167.333V68.4542H174.939V60.8481Z" fill="black"/>
<path d="M98.8785 68.4541H91.2725V76.0602H98.8785V68.4541Z" fill="black"/>
<path d="M121.697 68.4541H114.091V76.0602H121.697V68.4541Z" fill="black"/>
<path d="M136.909 68.4541H129.303V76.0602H136.909V68.4541Z" fill="black"/>
<path d="M144.515 68.4541H136.909V76.0602H144.515V68.4541Z" fill="black"/>
<path d="M159.727 68.4541H152.121V76.0602H159.727V68.4541Z" fill="black"/>
<path d="M22.818 76.0605H15.2119V83.6666H22.818V76.0605Z" fill="black"/>
<path d="M45.6363 76.0605H38.0303V83.6666H45.6363V76.0605Z" fill="black"/>
<path d="M53.2423 76.0605H45.6362V83.6666H53.2423V76.0605Z" fill="black"/>
<path d="M60.8482 76.0605H53.2422V83.6666H60.8482V76.0605Z" fill="black"/>
<path d="M68.4542 76.0605H60.8481V83.6666H68.4542V76.0605Z" fill="black"/>
<path d="M76.0602 76.0605H68.4541V83.6666H76.0602V76.0605Z" fill="black"/>
<path d="M83.6666 76.0605H76.0605V83.6666H83.6666V76.0605Z" fill="black"/>
<path d="M91.2726 76.0605H83.6665V83.6666H91.2726V76.0605Z" fill="black"/>
<path d="M106.484 76.0605H98.8784V83.6666H106.484V76.0605Z" fill="black"/>
<path d="M121.697 76.0605H114.091V83.6666H121.697V76.0605Z" fill="black"/>
<path d="M152.121 76.0605H144.515V83.6666H152.121V76.0605Z" fill="black"/>
<path d="M167.333 76.0605H159.727V83.6666H167.333V76.0605Z" fill="black"/>
<path d="M182.545 76.0605H174.939V83.6666H182.545V76.0605Z" fill="black"/>
<path d="M205.363 76.0605H197.757V83.6666H205.363V76.0605Z" fill="black"/>
<path d="M220.576 76.0605H212.97V83.6666H220.576V76.0605Z" fill="black"/>
<path d="M228.182 76.0605H220.576V83.6666H228.182V76.0605Z" fill="black"/>
<path d="M235.788 76.0605H228.182V83.6666H235.788V76.0605Z" fill="black"/>
<path d="M45.6363 83.6665H38.0303V91.2726H45.6363V83.6665Z" fill="black"/>
<path d="M53.2423 83.6665H45.6362V91.2726H53.2423V83.6665Z" fill="black"/>
<path d="M121.697 83.6665H114.091V91.2726H121.697V83.6665Z" fill="black"/>
<path d="M144.515 83.6665H136.909V91.2726H144.515V83.6665Z" fill="black"/>
<path d="M159.727 83.6665H152.121V91.2726H159.727V83.6665Z" fill="black"/>
<path d="M167.333 83.6665H159.727V91.2726H167.333V83.6665Z" fill="black"/>
<path d="M205.363 83.6665H197.757V91.2726H205.363V83.6665Z" fill="black"/>
<path d="M220.576 83.6665H212.97V91.2726H220.576V83.6665Z" fill="black"/>
<path d="M228.182 83.6665H220.576V91.2726H228.182V83.6665Z" fill="black"/>
<path d="M22.818 91.2725H15.2119V98.8785H22.818V91.2725Z" fill="black"/>
<path d="M30.4239 91.2725H22.8179V98.8785H30.4239V91.2725Z" fill="black"/>
<path d="M53.2423 91.2725H45.6362V98.8785H53.2423V91.2725Z" fill="black"/>
<path d="M60.8482 91.2725H53.2422V98.8785H60.8482V91.2725Z" fill="black"/>
<path d="M68.4542 91.2725H60.8481V98.8785H68.4542V91.2725Z" fill="black"/>
<path d="M83.6666 91.2725H76.0605V98.8785H83.6666V91.2725Z" fill="black"/>
<path d="M98.8785 91.2725H91.2725V98.8785H98.8785V91.2725Z" fill="black"/>
<path d="M106.484 91.2725H98.8784V98.8785H106.484V91.2725Z" fill="black"/>
<path d="M121.697 91.2725H114.091V98.8785H121.697V91.2725Z" fill="black"/>
<path d="M136.909 91.2725H129.303V98.8785H136.909V91.2725Z" fill="black"/>
<path d="M144.515 91.2725H136.909V98.8785H144.515V91.2725Z" fill="black"/>
<path d="M190.151 91.2725H182.545V98.8785H190.151V91.2725Z" fill="black"/>
<path d="M205.363 91.2725H197.757V98.8785H205.363V91.2725Z" fill="black"/>
<path d="M220.576 91.2725H212.97V98.8785H220.576V91.2725Z" fill="black"/>
<path d="M30.4239 98.8784H22.8179V106.484H30.4239V98.8784Z" fill="black"/>
<path d="M38.0299 98.8784H30.4238V106.484H38.0299V98.8784Z" fill="black"/>
<path d="M53.2423 98.8784H45.6362V106.484H53.2423V98.8784Z" fill="black"/>
<path d="M60.8482 98.8784H53.2422V106.484H60.8482V98.8784Z" fill="black"/>
<path d="M106.484 98.8784H98.8784V106.484H106.484V98.8784Z" fill="black"/>
<path d="M121.697 98.8784H114.091V106.484H121.697V98.8784Z" fill="black"/>
<path d="M144.515 98.8784H136.909V106.484H144.515V98.8784Z" fill="black"/>
<path d="M152.121 98.8784H144.515V106.484H152.121V98.8784Z" fill="black"/>
<path d="M174.939 98.8784H167.333V106.484H174.939V98.8784Z" fill="black"/>
<path d="M182.545 98.8784H174.939V106.484H182.545V98.8784Z" fill="black"/>
<path d="M205.363 98.8784H197.757V106.484H205.363V98.8784Z" fill="black"/>
<path d="M212.969 98.8784H205.363V106.484H212.969V98.8784Z" fill="black"/>
<path d="M235.788 98.8784H228.182V106.484H235.788V98.8784Z" fill="black"/>
<path d="M22.818 106.485H15.2119V114.091H22.818V106.485Z" fill="black"/>
<path d="M30.4239 106.485H22.8179V114.091H30.4239V106.485Z" fill="black"/>
<path d="M68.4542 106.485H60.8481V114.091H68.4542V106.485Z" fill="black"/>
<path d="M76.0602 106.485H68.4541V114.091H76.0602V106.485Z" fill="black"/>
<path d="M83.6666 106.485H76.0605V114.091H83.6666V106.485Z" fill="black"/>
<path d="M121.697 106.485H114.091V114.091H121.697V106.485Z" fill="black"/>
<path d="M136.909 106.485H129.303V114.091H136.909V106.485Z" fill="black"/>
<path d="M144.515 106.485H136.909V114.091H144.515V106.485Z" fill="black"/>
<path d="M174.939 106.485H167.333V114.091H174.939V106.485Z" fill="black"/>
<path d="M182.545 106.485H174.939V114.091H182.545V106.485Z" fill="black"/>
<path d="M190.151 106.485H182.545V114.091H190.151V106.485Z" fill="black"/>
<path d="M197.757 106.485H190.151V114.091H197.757V106.485Z" fill="black"/>
<path d="M235.788 106.485H228.182V114.091H235.788V106.485Z" fill="black"/>
<path d="M53.2423 114.091H45.6362V121.697H53.2423V114.091Z" fill="black"/>
<path d="M60.8482 114.091H53.2422V121.697H60.8482V114.091Z" fill="black"/>
<path d="M76.0602 114.091H68.4541V121.697H76.0602V114.091Z" fill="black"/>
<path d="M83.6666 114.091H76.0605V121.697H83.6666V114.091Z" fill="black"/>
<path d="M98.8785 114.091H91.2725V121.697H98.8785V114.091Z" fill="black"/>
<path d="M106.484 114.091H98.8784V121.697H106.484V114.091Z" fill="black"/>
<path d="M114.091 114.091H106.485V121.697H114.091V114.091Z" fill="black"/>
<path d="M121.697 114.091H114.091V121.697H121.697V114.091Z" fill="black"/>
<path d="M129.303 114.091H121.697V121.697H129.303V114.091Z" fill="black"/>
<path d="M144.515 114.091H136.909V121.697H144.515V114.091Z" fill="black"/>
<path d="M190.151 114.091H182.545V121.697H190.151V114.091Z" fill="black"/>
<path d="M197.757 114.091H190.151V121.697H197.757V114.091Z" fill="black"/>
<path d="M205.363 114.091H197.757V121.697H205.363V114.091Z" fill="black"/>
<path d="M212.969 114.091H205.363V121.697H212.969V114.091Z" fill="black"/>
<path d="M220.576 114.091H212.97V121.697H220.576V114.091Z" fill="black"/>
<path d="M228.182 114.091H220.576V121.697H228.182V114.091Z" fill="black"/>
<path d="M235.788 114.091H228.182V121.697H235.788V114.091Z" fill="black"/>
<path d="M22.818 121.697H15.2119V129.303H22.818V121.697Z" fill="black"/>
<path d="M60.8482 121.697H53.2422V129.303H60.8482V121.697Z" fill="black"/>
<path d="M68.4542 121.697H60.8481V129.303H68.4542V121.697Z" fill="black"/>
<path d="M76.0602 121.697H68.4541V129.303H76.0602V121.697Z" fill="black"/>
<path d="M98.8785 121.697H91.2725V129.303H98.8785V121.697Z" fill="black"/>
<path d="M106.484 121.697H98.8784V129.303H106.484V121.697Z" fill="black"/>
<path d="M114.091 121.697H106.485V129.303H114.091V121.697Z" fill="black"/>
<path d="M121.697 121.697H114.091V129.303H121.697V121.697Z" fill="black"/>
<path d="M144.515 121.697H136.909V129.303H144.515V121.697Z" fill="black"/>
<path d="M152.121 121.697H144.515V129.303H152.121V121.697Z" fill="black"/>
<path d="M167.333 121.697H159.727V129.303H167.333V121.697Z" fill="black"/>
<path d="M182.545 121.697H174.939V129.303H182.545V121.697Z" fill="black"/>
<path d="M197.757 121.697H190.151V129.303H197.757V121.697Z" fill="black"/>
<path d="M205.363 121.697H197.757V129.303H205.363V121.697Z" fill="black"/>
<path d="M220.576 121.697H212.97V129.303H220.576V121.697Z" fill="black"/>
<path d="M235.788 121.697H228.182V129.303H235.788V121.697Z" fill="black"/>
<path d="M38.0299 129.303H30.4238V136.909H38.0299V129.303Z" fill="black"/>
<path d="M45.6363 129.303H38.0303V136.909H45.6363V129.303Z" fill="black"/>
<path d="M83.6666 129.303H76.0605V136.909H83.6666V129.303Z" fill="black"/>
<path d="M98.8785 129.303H91.2725V136.909H98.8785V129.303Z" fill="black"/>
<path d="M136.909 129.303H129.303V136.909H136.909V129.303Z" fill="black"/>
<path d="M167.333 129.303H159.727V136.909H167.333V129.303Z" fill="black"/>
<path d="M182.545 129.303H174.939V136.909H182.545V129.303Z" fill="black"/>
<path d="M197.757 129.303H190.151V136.909H197.757V129.303Z" fill="black"/>
<path d="M220.576 129.303H212.97V136.909H220.576V129.303Z" fill="black"/>
<path d="M235.788 129.303H228.182V136.909H235.788V129.303Z" fill="black"/>
<path d="M22.818 136.909H15.2119V144.515H22.818V136.909Z" fill="black"/>
<path d="M53.2423 136.909H45.6362V144.515H53.2423V136.909Z" fill="black"/>
<path d="M68.4542 136.909H60.8481V144.515H68.4542V136.909Z" fill="black"/>
<path d="M91.2726 136.909H83.6665V144.515H91.2726V136.909Z" fill="black"/>
<path d="M106.484 136.909H98.8784V144.515H106.484V136.909Z" fill="black"/>
<path d="M114.091 136.909H106.485V144.515H114.091V136.909Z" fill="black"/>
<path d="M129.303 136.909H121.697V144.515H129.303V136.909Z" fill="black"/>
<path d="M144.515 136.909H136.909V144.515H144.515V136.909Z" fill="black"/>
<path d="M152.121 136.909H144.515V144.515H152.121V136.909Z" fill="black"/>
<path d="M174.939 136.909H167.333V144.515H174.939V136.909Z" fill="black"/>
<path d="M197.757 136.909H190.151V144.515H197.757V136.909Z" fill="black"/>
<path d="M212.969 136.909H205.363V144.515H212.969V136.909Z" fill="black"/>
<path d="M22.818 144.515H15.2119V152.121H22.818V144.515Z" fill="black"/>
<path d="M38.0299 144.515H30.4238V152.121H38.0299V144.515Z" fill="black"/>
<path d="M53.2423 144.515H45.6362V152.121H53.2423V144.515Z" fill="black"/>
<path d="M98.8785 144.515H91.2725V152.121H98.8785V144.515Z" fill="black"/>
<path d="M106.484 144.515H98.8784V152.121H106.484V144.515Z" fill="black"/>
<path d="M121.697 144.515H114.091V152.121H121.697V144.515Z" fill="black"/>
<path d="M129.303 144.515H121.697V152.121H129.303V144.515Z" fill="black"/>
<path d="M144.515 144.515H136.909V152.121H144.515V144.515Z" fill="black"/>
<path d="M159.727 144.515H152.121V152.121H159.727V144.515Z" fill="black"/>
<path d="M174.939 144.515H167.333V152.121H174.939V144.515Z" fill="black"/>
<path d="M205.363 144.515H197.757V152.121H205.363V144.515Z" fill="black"/>
<path d="M220.576 144.515H212.97V152.121H220.576V144.515Z" fill="black"/>
<path d="M228.182 144.515H220.576V152.121H228.182V144.515Z" fill="black"/>
<path d="M22.818 152.121H15.2119V159.727H22.818V152.121Z" fill="black"/>
<path d="M30.4239 152.121H22.8179V159.727H30.4239V152.121Z" fill="black"/>
<path d="M45.6363 152.121H38.0303V159.727H45.6363V152.121Z" fill="black"/>
<path d="M68.4542 152.121H60.8481V159.727H68.4542V152.121Z" fill="black"/>
<path d="M91.2726 152.121H83.6665V159.727H91.2726V152.121Z" fill="black"/>
<path d="M106.484 152.121H98.8784V159.727H106.484V152.121Z" fill="black"/>
<path d="M136.909 152.121H129.303V159.727H136.909V152.121Z" fill="black"/>
<path d="M152.121 152.121H144.515V159.727H152.121V152.121Z" fill="black"/>
<path d="M167.333 152.121H159.727V159.727H167.333V152.121Z" fill="black"/>
<path d="M174.939 152.121H167.333V159.727H174.939V152.121Z" fill="black"/>
<path d="M197.757 152.121H190.151V159.727H197.757V152.121Z" fill="black"/>
<path d="M212.969 152.121H205.363V159.727H212.969V152.121Z" fill="black"/>
<path d="M235.788 152.121H228.182V159.727H235.788V152.121Z" fill="black"/>
<path d="M22.818 159.727H15.2119V167.333H22.818V159.727Z" fill="black"/>
<path d="M30.4239 159.727H22.8179V167.333H30.4239V159.727Z" fill="black"/>
<path d="M38.0299 159.727H30.4238V167.333H38.0299V159.727Z" fill="black"/>
<path d="M45.6363 159.727H38.0303V167.333H45.6363V159.727Z" fill="black"/>
<path d="M53.2423 159.727H45.6362V167.333H53.2423V159.727Z" fill="black"/>
<path d="M60.8482 159.727H53.2422V167.333H60.8482V159.727Z" fill="black"/>
<path d="M76.0602 159.727H68.4541V167.333H76.0602V159.727Z" fill="black"/>
<path d="M91.2726 159.727H83.6665V167.333H91.2726V159.727Z" fill="black"/>
<path d="M98.8785 159.727H91.2725V167.333H98.8785V159.727Z" fill="black"/>
<path d="M114.091 159.727H106.485V167.333H114.091V159.727Z" fill="black"/>
<path d="M129.303 159.727H121.697V167.333H129.303V159.727Z" fill="black"/>
<path d="M182.545 159.727H174.939V167.333H182.545V159.727Z" fill="black"/>
<path d="M197.757 159.727H190.151V167.333H197.757V159.727Z" fill="black"/>
<path d="M212.969 159.727H205.363V167.333H212.969V159.727Z" fill="black"/>
<path d="M220.576 159.727H212.97V167.333H220.576V159.727Z" fill="black"/>
<path d="M22.818 167.333H15.2119V174.939H22.818V167.333Z" fill="black"/>
<path d="M30.4239 167.333H22.8179V174.939H30.4239V167.333Z" fill="black"/>
<path d="M38.0299 167.333H30.4238V174.939H38.0299V167.333Z" fill="black"/>
<path d="M53.2423 167.333H45.6362V174.939H53.2423V167.333Z" fill="black"/>
<path d="M60.8482 167.333H53.2422V174.939H60.8482V167.333Z" fill="black"/>
<path d="M68.4542 167.333H60.8481V174.939H68.4542V167.333Z" fill="black"/>
<path d="M76.0602 167.333H68.4541V174.939H76.0602V167.333Z" fill="black"/>
<path d="M83.6666 167.333H76.0605V174.939H83.6666V167.333Z" fill="black"/>
<path d="M106.484 167.333H98.8784V174.939H106.484V167.333Z" fill="black"/>
<path d="M121.697 167.333H114.091V174.939H121.697V167.333Z" fill="black"/>
<path d="M129.303 167.333H121.697V174.939H129.303V167.333Z" fill="black"/>
<path d="M136.909 167.333H129.303V174.939H136.909V167.333Z" fill="black"/>
<path d="M144.515 167.333H136.909V174.939H144.515V167.333Z" fill="black"/>
<path d="M152.121 167.333H144.515V174.939H152.121V167.333Z" fill="black"/>
<path d="M167.333 167.333H159.727V174.939H167.333V167.333Z" fill="black"/>
<path d="M174.939 167.333H167.333V174.939H174.939V167.333Z" fill="black"/>
<path d="M182.545 167.333H174.939V174.939H182.545V167.333Z" fill="black"/>
<path d="M190.151 167.333H182.545V174.939H190.151V167.333Z" fill="black"/>
<path d="M197.757 167.333H190.151V174.939H197.757V167.333Z" fill="black"/>
<path d="M205.363 167.333H197.757V174.939H205.363V167.333Z" fill="black"/>
<path d="M212.969 167.333H205.363V174.939H212.969V167.333Z" fill="black"/>
<path d="M220.576 167.333H212.97V174.939H220.576V167.333Z" fill="black"/>
<path d="M228.182 167.333H220.576V174.939H228.182V167.333Z" fill="black"/>
<path d="M83.6666 174.939H76.0605V182.545H83.6666V174.939Z" fill="black"/>
<path d="M98.8785 174.939H91.2725V182.545H98.8785V174.939Z" fill="black"/>
<path d="M106.484 174.939H98.8784V182.545H106.484V174.939Z" fill="black"/>
<path d="M129.303 174.939H121.697V182.545H129.303V174.939Z" fill="black"/>
<path d="M152.121 174.939H144.515V182.545H152.121V174.939Z" fill="black"/>
<path d="M159.727 174.939H152.121V182.545H159.727V174.939Z" fill="black"/>
<path d="M167.333 174.939H159.727V182.545H167.333V174.939Z" fill="black"/>
<path d="M174.939 174.939H167.333V182.545H174.939V174.939Z" fill="black"/>
<path d="M205.363 174.939H197.757V182.545H205.363V174.939Z" fill="black"/>
<path d="M212.969 174.939H205.363V182.545H212.969V174.939Z" fill="black"/>
<path d="M83.6666 182.545H76.0605V190.151H83.6666V182.545Z" fill="black"/>
<path d="M98.8785 182.545H91.2725V190.151H98.8785V182.545Z" fill="black"/>
<path d="M106.484 182.545H98.8784V190.151H106.484V182.545Z" fill="black"/>
<path d="M114.091 182.545H106.485V190.151H114.091V182.545Z" fill="black"/>
<path d="M129.303 182.545H121.697V190.151H129.303V182.545Z" fill="black"/>
<path d="M159.727 182.545H152.121V190.151H159.727V182.545Z" fill="black"/>
<path d="M174.939 182.545H167.333V190.151H174.939V182.545Z" fill="black"/>
<path d="M190.151 182.545H182.545V190.151H190.151V182.545Z" fill="black"/>
<path d="M205.363 182.545H197.757V190.151H205.363V182.545Z" fill="black"/>
<path d="M212.969 182.545H205.363V190.151H212.969V182.545Z" fill="black"/>
<path d="M83.6666 190.151H76.0605V197.757H83.6666V190.151Z" fill="black"/>
<path d="M91.2726 190.151H83.6665V197.757H91.2726V190.151Z" fill="black"/>
<path d="M106.484 190.151H98.8784V197.757H106.484V190.151Z" fill="black"/>
<path d="M129.303 190.151H121.697V197.757H129.303V190.151Z" fill="black"/>
<path d="M136.909 190.151H129.303V197.757H136.909V190.151Z" fill="black"/>
<path d="M152.121 190.151H144.515V197.757H152.121V190.151Z" fill="black"/>
<path d="M159.727 190.151H152.121V197.757H159.727V190.151Z" fill="black"/>
<path d="M167.333 190.151H159.727V197.757H167.333V190.151Z" fill="black"/>
<path d="M174.939 190.151H167.333V197.757H174.939V190.151Z" fill="black"/>
<path d="M205.363 190.151H197.757V197.757H205.363V190.151Z" fill="black"/>
<path d="M83.6666 197.757H76.0605V205.363H83.6666V197.757Z" fill="black"/>
<path d="M98.8785 197.757H91.2725V205.363H98.8785V197.757Z" fill="black"/>
<path d="M121.697 197.757H114.091V205.363H121.697V197.757Z" fill="black"/>
<path d="M129.303 197.757H121.697V205.363H129.303V197.757Z" fill="black"/>
<path d="M144.515 197.757H136.909V205.363H144.515V197.757Z" fill="black"/>
<path d="M152.121 197.757H144.515V205.363H152.121V197.757Z" fill="black"/>
<path d="M167.333 197.757H159.727V205.363H167.333V197.757Z" fill="black"/>
<path d="M174.939 197.757H167.333V205.363H174.939V197.757Z" fill="black"/>
<path d="M182.545 197.757H174.939V205.363H182.545V197.757Z" fill="black"/>
<path d="M190.151 197.757H182.545V205.363H190.151V197.757Z" fill="black"/>
<path d="M197.757 197.757H190.151V205.363H197.757V197.757Z" fill="black"/>
<path d="M205.363 197.757H197.757V205.363H205.363V197.757Z" fill="black"/>
<path d="M212.969 197.757H205.363V205.363H212.969V197.757Z" fill="black"/>
<path d="M83.6666 205.363H76.0605V212.969H83.6666V205.363Z" fill="black"/>
<path d="M91.2726 205.363H83.6665V212.969H91.2726V205.363Z" fill="black"/>
<path d="M98.8785 205.363H91.2725V212.969H98.8785V205.363Z" fill="black"/>
<path d="M114.091 205.363H106.485V212.969H114.091V205.363Z" fill="black"/>
<path d="M182.545 205.363H174.939V212.969H182.545V205.363Z" fill="black"/>
<path d="M228.182 205.363H220.576V212.969H228.182V205.363Z" fill="black"/>
<path d="M91.2726 212.97H83.6665V220.576H91.2726V212.97Z" fill="black"/>
<path d="M98.8785 212.97H91.2725V220.576H98.8785V212.97Z" fill="black"/>
<path d="M106.484 212.97H98.8784V220.576H106.484V212.97Z" fill="black"/>
<path d="M136.909 212.97H129.303V220.576H136.909V212.97Z" fill="black"/>
<path d="M152.121 212.97H144.515V220.576H152.121V212.97Z" fill="black"/>
<path d="M182.545 212.97H174.939V220.576H182.545V212.97Z" fill="black"/>
<path d="M205.363 212.97H197.757V220.576H205.363V212.97Z" fill="black"/>
<path d="M220.576 212.97H212.97V220.576H220.576V212.97Z" fill="black"/>
<path d="M228.182 212.97H220.576V220.576H228.182V212.97Z" fill="black"/>
<path d="M235.788 212.97H228.182V220.576H235.788V212.97Z" fill="black"/>
<path d="M91.2726 220.576H83.6665V228.182H91.2726V220.576Z" fill="black"/>
<path d="M98.8785 220.576H91.2725V228.182H98.8785V220.576Z" fill="black"/>
<path d="M106.484 220.576H98.8784V228.182H106.484V220.576Z" fill="black"/>
<path d="M114.091 220.576H106.485V228.182H114.091V220.576Z" fill="black"/>
<path d="M121.697 220.576H114.091V228.182H121.697V220.576Z" fill="black"/>
<path d="M129.303 220.576H121.697V228.182H129.303V220.576Z" fill="black"/>
<path d="M144.515 220.576H136.909V228.182H144.515V220.576Z" fill="black"/>
<path d="M159.727 220.576H152.121V228.182H159.727V220.576Z" fill="black"/>
<path d="M167.333 220.576H159.727V228.182H167.333V220.576Z" fill="black"/>
<path d="M174.939 220.576H167.333V228.182H174.939V220.576Z" fill="black"/>
<path d="M182.545 220.576H174.939V228.182H182.545V220.576Z" fill="black"/>
<path d="M190.151 220.576H182.545V228.182H190.151V220.576Z" fill="black"/>
<path d="M205.363 220.576H197.757V228.182H205.363V220.576Z" fill="black"/>
<path d="M212.969 220.576H205.363V228.182H212.969V220.576Z" fill="black"/>
<path d="M220.576 220.576H212.97V228.182H220.576V220.576Z" fill="black"/>
<path d="M235.788 220.576H228.182V228.182H235.788V220.576Z" fill="black"/>
<path d="M83.6666 228.182H76.0605V235.788H83.6666V228.182Z" fill="black"/>
<path d="M98.8785 228.182H91.2725V235.788H98.8785V228.182Z" fill="black"/>
<path d="M167.333 228.182H159.727V235.788H167.333V228.182Z" fill="black"/>
<path d="M174.939 228.182H167.333V235.788H174.939V228.182Z" fill="black"/>
<path d="M190.151 228.182H182.545V235.788H190.151V228.182Z" fill="black"/>
<path d="M205.363 228.182H197.757V235.788H205.363V228.182Z" fill="black"/>
<path d="M212.969 228.182H205.363V235.788H212.969V228.182Z" fill="black"/>
<path d="M60.468 15.2119H23.1983H15.2119V23.1983V60.468V68.4543H23.1983H60.468H68.4543V60.468V23.1983V15.2119H60.468ZM60.468 60.468H23.1983V23.1983H60.468V60.468Z" fill="black"/>
<path d="M227.801 15.2119H190.532H182.545V23.1983V60.468V68.4543H190.532H227.801H235.788V60.468V23.1983V15.2119H227.801ZM227.801 60.468H190.532V23.1983H227.801V60.468Z" fill="black"/>
<path d="M60.468 182.545H23.1983H15.2119V190.532V227.801V235.788H23.1983H60.468H68.4543V227.801V190.532V182.545H60.468ZM60.468 227.801H23.1983V190.532H60.468V227.801Z" fill="black"/>
<path d="M53.242 30.4238H30.4238V53.242H53.242V30.4238Z" fill="black"/>
<path d="M220.576 30.4238H197.757V53.242H220.576V30.4238Z" fill="black"/>
<path d="M53.242 197.757H30.4238V220.576H53.242V197.757Z" fill="black"/>
</g>
<defs>
<clipPath id="clip0_528_4052">
<rect width="251" height="251" fill="white"/>
</clipPath>
</defs>
</svg>
