<svg width="59" height="38" viewBox="0 0 59 38" fill="none" xmlns="http://www.w3.org/2000/svg">
<path d="M0.0298296 0.636363H8.64134L16.9332 16.2969H17.2884L25.5803 0.636363H34.1918L20.9283 24.1449V37H13.2933V24.1449L0.0298296 0.636363ZM44.8585 37.5327C42.1004 37.5327 39.7153 36.9467 37.7029 35.7749C35.7025 34.5911 34.1577 32.9458 33.0687 30.8388C31.9797 28.7199 31.4352 26.2637 31.4352 23.4702C31.4352 20.6529 31.9797 18.1908 33.0687 16.0838C34.1577 13.965 35.7025 12.3196 37.7029 11.1477C39.7153 9.96401 42.1004 9.37216 44.8585 9.37216C47.6165 9.37216 49.9958 9.96401 51.9963 11.1477C54.0086 12.3196 55.5592 13.965 56.6483 16.0838C57.7373 18.1908 58.2818 20.6529 58.2818 23.4702C58.2818 26.2637 57.7373 28.7199 56.6483 30.8388C55.5592 32.9458 54.0086 34.5911 51.9963 35.7749C49.9958 36.9467 47.6165 37.5327 44.8585 37.5327ZM44.894 31.6733C46.1487 31.6733 47.1963 31.3182 48.0368 30.608C48.8772 29.8859 49.5105 28.9034 49.9366 27.6605C50.3746 26.4176 50.5936 25.0031 50.5936 23.4169C50.5936 21.8307 50.3746 20.4162 49.9366 19.1733C49.5105 17.9304 48.8772 16.9479 48.0368 16.2259C47.1963 15.5038 46.1487 15.1428 44.894 15.1428C43.6274 15.1428 42.5621 15.5038 41.698 16.2259C40.8457 16.9479 40.2006 17.9304 39.7626 19.1733C39.3365 20.4162 39.1234 21.8307 39.1234 23.4169C39.1234 25.0031 39.3365 26.4176 39.7626 27.6605C40.2006 28.9034 40.8457 29.8859 41.698 30.608C42.5621 31.3182 43.6274 31.6733 44.894 31.6733Z" fill="#242424"/>
</svg>
